<svg width="74" height="58" viewBox="0 0 74 58" fill="none" xmlns="http://www.w3.org/2000/svg">
<g clip-path="url(#clip0_1609_737)">
<path d="M46.2697 11.4005L36.0547 1.36786C35.7808 1.09892 35.4123 0.948242 35.0281 0.948242H9.203C6.18939 0.948242 3.7373 3.39995 3.7373 6.41394V45.4825C3.7373 48.4962 6.18901 50.9482 9.203 50.9482H41.2423C44.2559 50.9482 46.708 48.4965 46.708 45.4825V12.4457C46.708 12.0524 46.55 11.6759 46.2697 11.4005ZM36.493 5.90506L41.6611 10.9809H36.9587C36.702 10.9809 36.493 10.7719 36.493 10.5151V5.90506ZM41.2423 48.0186H9.203C7.80492 48.0186 6.66699 46.881 6.66699 45.4825V6.41394C6.66699 5.01547 7.80453 3.87793 9.203 3.87793H33.5637V10.5151C33.5637 12.3874 35.0869 13.9106 36.9591 13.9106H43.7783V45.4825C43.7783 46.881 42.6407 48.0186 41.2423 48.0186Z" fill="#ADB0B7"/>
<path d="M35.3919 24.1904H14.7422C13.9331 24.1904 13.2773 24.8462 13.2773 25.6553C13.2773 26.4644 13.9331 27.1201 14.7422 27.1201H35.3919C36.201 27.1201 36.8568 26.4644 36.8568 25.6553C36.8568 24.8462 36.201 24.1904 35.3919 24.1904Z" fill="#ADB0B7"/>
<path d="M14.7422 32.9795H31.5795C32.3886 32.9795 33.0443 32.3237 33.0443 31.5146C33.0443 30.7056 32.3886 30.0498 31.5795 30.0498H14.7422C13.9331 30.0498 13.2773 30.7056 13.2773 31.5146C13.2773 32.3237 13.9331 32.9795 14.7422 32.9795Z" fill="#ADB0B7"/>
<path d="M33.6108 35.9092H14.7422C13.9331 35.9092 13.2773 36.5649 13.2773 37.374C13.2773 38.1831 13.9331 38.8389 14.7422 38.8389H33.6108C34.4195 38.8389 35.0757 38.1831 35.0757 37.374C35.0757 36.5649 34.4195 35.9092 33.6108 35.9092Z" fill="#ADB0B7"/>
</g>
<path d="M65.8478 49.7286C66.222 49.3544 66.222 48.7476 65.8478 48.3734L64.1536 46.6792L65.8478 44.9851C66.222 44.6109 66.222 44.0041 65.8478 43.6298C65.4735 43.2556 64.8667 43.2556 64.4925 43.6298L62.7983 45.3239L61.1042 43.6298C60.73 43.2556 60.1232 43.2556 59.7489 43.6298C59.3747 44.0041 59.3747 44.6109 59.7489 44.9851L61.4431 46.6792L59.7489 48.3734C59.3747 48.7476 59.3747 49.3544 59.7489 49.7286C60.1232 50.1029 60.73 50.1029 61.1042 49.7286L62.7983 48.0345L64.4925 49.7286C64.8667 50.1029 65.4735 50.1029 65.8478 49.7286Z" fill="#ADB0B7"/>
<path fill-rule="evenodd" clip-rule="evenodd" d="M56.4269 39.8277C60.0702 36.1844 65.9773 36.1844 69.6207 39.8277C73.0352 43.2423 73.2497 48.6452 70.2639 52.3095C66.6051 56.7997 59.8414 56.4361 56.4269 53.0216C52.7835 49.3782 52.7835 43.4711 56.4269 39.8277ZM68.2654 41.183C65.3705 38.2882 60.677 38.2882 57.7822 41.183C54.8873 44.0779 54.8873 48.7714 57.7822 51.6663C60.677 54.5611 65.3705 54.5611 68.2654 51.6663C71.1602 48.7714 71.1602 44.0779 68.2654 41.183Z" fill="#ADB0B7"/>
<defs>
<clipPath id="clip0_1609_737">
<rect width="50" height="50" fill="white" transform="translate(0.22168 0.948242)"/>
</clipPath>
</defs>
</svg>
