<svg width="80" height="80" viewBox="0 0 80 80" fill="none" xmlns="http://www.w3.org/2000/svg">
<g clip-path="url(#clip0_1611_1685)">
<path d="M40 72C57.6731 72 72 57.6731 72 40C72 22.3269 57.6731 8 40 8C22.3269 8 8 22.3269 8 40C8 57.6731 22.3269 72 40 72Z" fill="url(#paint0_linear_1611_1685)"/>
<path d="M52.225 27.7694C51.8807 28.1114 51.6749 28.5686 51.6472 29.0532C51.6195 29.5377 51.7719 30.0154 52.075 30.3944C54.3022 33.1799 55.491 36.6534 55.4375 40.2194C55.3225 48.7194 48.2625 55.5744 39.7575 55.4432C36.8739 55.4003 34.06 54.5503 31.635 52.9894C29.21 51.4286 27.2709 49.2194 26.0376 46.6125C24.8044 44.0056 24.3263 41.1052 24.6577 38.2404C24.9891 35.3756 26.1167 32.6609 27.9125 30.4044C28.2179 30.0255 28.3728 29.5472 28.3474 29.0613C28.322 28.5753 28.1182 28.1157 27.775 27.7707C27.5793 27.5743 27.3443 27.4215 27.0854 27.3223C26.8265 27.2231 26.5495 27.1796 26.2727 27.1949C25.9959 27.2101 25.7254 27.2836 25.4789 27.4106C25.2324 27.5376 25.0156 27.7153 24.8425 27.9319C22.1031 31.3619 20.6154 35.6235 20.625 40.0132C20.625 50.6882 29.3613 59.3957 40.0363 59.3757C43.6776 59.369 47.2434 58.3363 50.3247 56.3961C53.406 54.4558 55.8782 51.6865 57.4579 48.4057C59.0375 45.1248 59.6606 41.4652 59.2557 37.8465C58.8508 34.2277 57.4344 30.7963 55.1688 27.9457C54.9963 27.727 54.7795 27.5474 54.5326 27.4185C54.2858 27.2896 54.0144 27.2143 53.7364 27.1977C53.4584 27.181 53.1801 27.2234 52.9196 27.3219C52.6591 27.4204 52.4224 27.5729 52.225 27.7694Z" fill="white"/>
<path d="M41.9101 22.5925C41.9101 21.5059 41.0292 20.625 39.9426 20.625C38.856 20.625 37.9751 21.5059 37.9751 22.5925V36.8838C37.9751 37.9704 38.856 38.8512 39.9426 38.8512C41.0292 38.8512 41.9101 37.9704 41.9101 36.8838V22.5925Z" fill="white"/>
</g>
<defs>
<linearGradient id="paint0_linear_1611_1685" x1="17.3725" y1="17.3725" x2="62.6275" y2="62.6275" gradientUnits="userSpaceOnUse">
<stop stop-color="#70F64A"/>
<stop offset="1" stop-color="#19B931"/>
</linearGradient>
<clipPath id="clip0_1611_1685">
<rect width="64" height="64" fill="white" transform="translate(8 8)"/>
</clipPath>
</defs>
</svg>
